#N canvas 1871 432 1573 678 10;
#X obj 240 459 hradio 30 1 0 16 $step $tick empty 0 -6 0 10 -228856
-262130 -1 14;
#N canvas 1795 483 823 399 #BPM 0;
#X obj 95 187 f;
#X obj 128 186 + 1;
#X obj 95 154 metro;
#X obj 95 133 tgl 15 1 empty $playStop empty 0 -6 0 10 -262144 -1 -1
1 1;
#X obj 95 218 mod 16;
#X obj 122 108 r $tempo;
#X obj 202 73 loadbang;
#X msg 202 98 120;
#X obj 95 240 s $tick;
#X obj 37 154 select 0;
#X msg 66 186 0;
#X obj 246 149 bng 15 250 50 0 empty empty empty 17 7 0 10 -262144
-1 -1;
#X obj 282 117 r $manualTick;
#X obj 122 133 expr 15000 / $f1;
#X connect 0 0 1 0;
#X connect 0 0 4 0;
#X connect 1 0 0 1;
#X connect 2 0 0 0;
#X connect 3 0 2 0;
#X connect 3 0 9 0;
#X connect 4 0 8 0;
#X connect 5 0 13 0;
#X connect 6 0 7 0;
#X connect 7 0 13 0;
#X connect 9 0 10 0;
#X connect 10 0 0 0;
#X connect 11 0 0 0;
#X connect 12 0 11 0;
#X connect 13 0 2 1;
#X restore 853 77 pd #BPM;
#X obj 196 459 tgl 30 0 $playStop empty Play/Stop -15 40 0 12 -261234
-1 -99865 1 1;
#X obj 134 91 vradio 20 1 0 2 $waveform empty Saw/Square -20 -8 0 12
-228856 -260097 -99865 1;
#X obj 240 422 tgl 30 0 $gl1 empty empty 17 7 0 10 -228856 -260097
-1 0 1;
#X obj 270 422 tgl 30 0 $gl2 empty empty 17 7 0 10 -228856 -260097
-1 0 1;
#X obj 300 422 tgl 30 0 $gl3 empty empty 17 7 0 10 -228856 -260097
-1 0 1;
#X obj 330 422 tgl 30 0 $gl4 empty empty 17 7 0 10 -228856 -260097
-1 0 1;
#X obj 360 422 tgl 30 0 $gl5 empty empty 17 7 0 10 -228856 -260097
-1 0 1;
#X obj 390 422 tgl 30 0 $gl6 empty empty 17 7 0 10 -228856 -260097
-1 0 1;
#X obj 420 422 tgl 30 0 $gl7 empty empty 17 7 0 10 -228856 -260097
-1 0 1;
#X obj 450 422 tgl 30 0 $gl8 empty empty 17 7 0 10 -228856 -260097
-1 0 1;
#X obj 480 422 tgl 30 0 $gl9 empty empty 17 7 0 10 -228856 -260097
-1 0 1;
#X obj 510 422 tgl 30 0 $gl10 empty empty 17 7 0 10 -228856 -260097
-1 0 1;
#X obj 540 422 tgl 30 0 $gl11 empty empty 17 7 0 10 -228856 -260097
-1 0 1;
#X obj 570 422 tgl 30 0 $gl12 empty empty 17 7 0 10 -228856 -260097
-1 0 1;
#X obj 600 422 tgl 30 0 $gl13 empty empty 17 7 0 10 -228856 -260097
-1 0 1;
#X obj 630 422 tgl 30 0 $gl14 empty empty 17 7 0 10 -228856 -260097
-1 0 1;
#X obj 660 422 tgl 30 0 $gl15 empty empty 17 7 0 10 -228856 -260097
-1 0 1;
#X obj 690 422 tgl 30 0 $gl16 empty empty 17 7 0 10 -228856 -260097
-1 0 1;
#X obj 195 313 cnv 15 525 30 empty empty C 0 15 0 30 -233017 -66577
0;
#X obj 195 282 cnv 15 525 30 empty empty E♭ 0 15 0 30 -162280 -66577
0;
#X obj 195 251 cnv 15 525 30 empty empty F 0 15 0 30 -233017 -66577
0;
#X obj 195 220 cnv 15 525 30 empty empty G 0 15 0 30 -228856 -66577
0;
#X obj 195 189 cnv 15 525 30 empty empty B♭ 0 15 0 30 -162280 -66577
0;
#X obj 195 158 cnv 15 525 30 empty empty C 0 15 0 30 -228856 -66577
0;
#X obj 240 160 vsl 30 180 1 6.99 0 1 $s1 empty empty 0 -8 0 10 -262130
-99865 -1 17900 0;
#X obj 270 160 vsl 30 180 1 6.99 0 1 $s2 empty empty 0 -8 0 10 -262130
-99865 -1 0 0;
#X obj 300 160 vsl 30 180 1 6.99 0 1 $s3 empty empty 0 -8 0 10 -262130
-99865 -1 0 0;
#X obj 330 160 vsl 30 180 1 6.99 0 1 $s4 empty empty 0 -8 0 10 -262130
-99865 -1 0 0;
#X obj 360 160 vsl 30 180 1 6.99 0 1 $s5 empty empty 0 -8 0 10 -262130
-99865 -1 0 0;
#X obj 390 160 vsl 30 180 1 6.99 0 1 $s6 empty empty 0 -8 0 10 -262130
-99865 -1 0 0;
#X obj 420 160 vsl 30 180 1 6.99 0 1 $s7 empty empty 0 -8 0 10 -262130
-99865 -1 0 0;
#X obj 450 160 vsl 30 180 1 6.99 0 1 $s8 empty empty 0 -8 0 10 -262130
-99865 -1 0 0;
#X obj 480 160 vsl 30 180 1 6.99 0 1 $s9 empty empty 0 -8 0 10 -262130
-99865 -1 0 0;
#X obj 510 160 vsl 30 180 1 6.99 0 1 $s10 empty empty 0 -8 0 10 -262130
-99865 -1 0 0;
#X obj 540 160 vsl 30 180 1 6.99 0 1 $s11 empty empty 0 -8 0 10 -262130
-99865 -1 0 0;
#X obj 570 160 vsl 30 180 1 6.99 0 1 $s12 empty empty 0 -8 0 10 -262130
-99865 -1 0 0;
#X obj 600 160 vsl 30 180 1 6.99 0 1 $s13 empty empty 0 -8 0 10 -262130
-99865 -1 0 0;
#X obj 630 160 vsl 30 180 1 6.99 0 1 $s14 empty empty 0 -8 0 10 -262130
-99865 -1 0 0;
#X obj 660 160 vsl 30 180 1 6.99 0 1 $s15 empty empty 0 -8 0 10 -262130
-99865 -1 0 0;
#X obj 690 160 vsl 30 180 1 6.99 0 1 $s16 empty empty 0 -8 0 10 -262130
-99865 -1 5700 0;
#X obj 196 422 cnv 15 35 30 empty empty Glide 0 15 0 12 -233017 -66577
0;
#X obj 126 203 vradio 30 1 0 3 $octave empty Octave -5 -8 0 12 -228856
-260097 -99865 0;
#X obj 240 386 tgl 30 0 $a1 empty empty 17 7 0 10 -228856 -260097 -1
0 1;
#X obj 270 386 tgl 30 0 $a2 empty empty 17 7 0 10 -228856 -260097 -1
0 1;
#X obj 300 386 tgl 30 0 $a3 empty empty 17 7 0 10 -228856 -260097 -1
0 1;
#X obj 330 386 tgl 30 0 $a4 empty empty 17 7 0 10 -228856 -260097 -1
0 1;
#X obj 360 386 tgl 30 0 $a5 empty empty 17 7 0 10 -228856 -260097 -1
0 1;
#X obj 390 386 tgl 30 0 $a6 empty empty 17 7 0 10 -228856 -260097 -1
0 1;
#X obj 420 386 tgl 30 0 $a7 empty empty 17 7 0 10 -228856 -260097 -1
0 1;
#X obj 450 386 tgl 30 0 $a8 empty empty 17 7 0 10 -228856 -260097 -1
0 1;
#X obj 480 386 tgl 30 0 $a9 empty empty 17 7 0 10 -228856 -260097 -1
0 1;
#X obj 510 386 tgl 30 0 $a10 empty empty 17 7 0 10 -228856 -260097
-1 0 1;
#X obj 540 386 tgl 30 0 $a11 empty empty 17 7 0 10 -228856 -260097
-1 0 1;
#X obj 570 386 tgl 30 0 $a12 empty empty 17 7 0 10 -228856 -260097
-1 0 1;
#X obj 600 386 tgl 30 0 $a13 empty empty 17 7 0 10 -228856 -260097
-1 0 1;
#X obj 630 386 tgl 30 0 $a14 empty empty 17 7 0 10 -228856 -260097
-1 0 1;
#X obj 660 386 tgl 30 0 $a15 empty empty 17 7 0 10 -228856 -260097
-1 0 1;
#X obj 690 386 tgl 30 0 $a16 empty empty 17 7 0 10 -228856 -260097
-1 0 1;
#X obj 196 386 cnv 15 42 30 empty empty Accent 0 15 0 12 -233017 -66577
0;
#X obj 240 350 tgl 30 0 $g1 empty empty 17 7 0 10 -228856 -260097 -1
1 1;
#X obj 270 350 tgl 30 0 $g2 empty empty 17 7 0 10 -228856 -260097 -1
0 1;
#X obj 300 350 tgl 30 0 $g3 empty empty 17 7 0 10 -228856 -260097 -1
0 1;
#X obj 330 350 tgl 30 0 $g4 empty empty 17 7 0 10 -228856 -260097 -1
0 1;
#X obj 360 350 tgl 30 0 $g5 empty empty 17 7 0 10 -228856 -260097 -1
0 1;
#X obj 390 350 tgl 30 0 $g6 empty empty 17 7 0 10 -228856 -260097 -1
1 1;
#X obj 420 350 tgl 30 0 $g7 empty empty 17 7 0 10 -228856 -260097 -1
0 1;
#X obj 450 350 tgl 30 0 $g8 empty empty 17 7 0 10 -228856 -260097 -1
0 1;
#X obj 480 350 tgl 30 0 $g9 empty empty 17 7 0 10 -228856 -260097 -1
0 1;
#X obj 510 350 tgl 30 0 $g10 empty empty 17 7 0 10 -228856 -260097
-1 0 1;
#X obj 540 350 tgl 30 0 $g11 empty empty 17 7 0 10 -228856 -260097
-1 0 1;
#X obj 570 350 tgl 30 0 $g12 empty empty 17 7 0 10 -228856 -260097
-1 0 1;
#X obj 600 350 tgl 30 0 $g13 empty empty 17 7 0 10 -228856 -260097
-1 0 1;
#X obj 630 350 tgl 30 0 $g14 empty empty 17 7 0 10 -228856 -260097
-1 0 1;
#X obj 660 350 tgl 30 0 $g15 empty empty 17 7 0 10 -228856 -260097
-1 0 1;
#X obj 690 350 tgl 30 0 $g16 empty empty 17 7 0 10 -228856 -260097
-1 1 1;
#X obj 196 350 cnv 15 30 30 empty empty Gate 0 15 0 12 -233017 -66577
0;
#X text 1190 204 a\$1 = accent 1 g\$1 = gate 1 gl\$1 = glide 1;
#X obj 245 76 vsl 20 64 1 1000 0 0 $decay empty Decay -6 -9 0 12 -228856
-260097 -66577 2500 1;
#X obj 596 76 vsl 20 64 20 4000 0 0 $filterFreq empty Filter_Frequency
-40 -9 0 12 -228856 -260097 -66577 1900 1;
#X obj 697 76 vsl 20 64 0 4.5 0 0 $resonance empty Filter_Q -15 -9
0 12 -228856 -260097 -66577 4300 1;
#X obj 73 64 vsl 20 64 60 180 0 0 $tempo empty Tempo -6 -9 0 12 -228856
-260097 -66577 6300 1;
#X obj 73 139 i;
#X floatatom 73 163 5 0 0 0 - - -;
#N canvas 1975 842 1672 930 #sequencer 0;
#X obj 127 376 f;
#X obj 194 376 f;
#X obj 258 376 f;
#X obj 330 379 f;
#X obj 398 381 f;
#X obj 464 381 f;
#X obj 529 380 f;
#X obj 595 380 f;
#X obj 660 381 f;
#X obj 723 383 f;
#X obj 795 384 f;
#X obj 859 385 f;
#X obj 925 385 f;
#X obj 999 386 f;
#X obj 1070 385 f;
#X obj 152 376 r $g1;
#X obj 126 330 r $s1;
#X obj 195 333 r $s2;
#X obj 259 332 r $s3;
#X obj 1070 344 r $s15;
#X obj 998 341 r $s14;
#X obj 329 337 r $s4;
#X obj 397 336 r $s5;
#X obj 464 339 r $s6;
#X obj 528 339 r $s7;
#X obj 594 338 r $s8;
#X obj 658 341 r $s9;
#X obj 722 342 r $s10;
#X obj 790 341 r $s11;
#X obj 857 343 r $s12;
#X obj 924 342 r $s13;
#X obj 126 352 i;
#X obj 259 353 i;
#X obj 329 358 i;
#X obj 397 357 i;
#X obj 464 360 i;
#X obj 528 360 i;
#X obj 594 359 i;
#X obj 658 362 i;
#X obj 722 363 i;
#X obj 857 364 i;
#X obj 924 363 i;
#X obj 998 362 i;
#X obj 1070 365 i;
#X obj 801 639 r $octave;
#X obj 801 664 + 1;
#X obj 801 691 * 12;
#X obj 767 835 mtof;
#X obj 786 742 +;
#X obj 685 716 tabread notesTable;
#X obj 219 376 r $g2;
#X obj 287 376 r $g3;
#X obj 358 381 r $g4;
#X obj 427 382 r $g5;
#X obj 490 381 r $g6;
#X obj 554 380 r $g7;
#X obj 621 380 r $g8;
#X obj 137 398 *;
#X obj 204 398 *;
#X obj 272 398 *;
#X obj 343 403 *;
#X obj 412 404 *;
#X obj 475 403 *;
#X obj 539 402 *;
#X obj 606 402 *;
#X obj 195 354 i;
#X obj 680 642 - 1;
#X obj 685 692 spigot;
#X obj 718 665 >= 0;
#X obj 670 404 *;
#X obj 685 382 r $g9;
#X obj 735 406 *;
#X obj 750 384 r $g10;
#X obj 807 407 *;
#X obj 790 362 i;
#X obj 869 407 *;
#X obj 937 407 *;
#X obj 822 385 r $g11;
#X obj 884 385 r $g12;
#X obj 952 385 r $g13;
#X obj 1011 407 *;
#X obj 1026 385 r $g14;
#X obj 1081 407 *;
#X obj 1096 385 r $g15;
#X obj 1145 386 f;
#X obj 1145 366 i;
#X obj 1156 408 *;
#X obj 1146 344 r $s16;
#X obj 1171 386 r $g16;
#X obj 801 715 + 12;
#N canvas 0 50 450 250 (subpatch) 0;
#X array notesTable 6 float 3;
#A 0 0 3 5 7 10 12;
#X coords 0 12 6 0 200 140 1 0 0;
#X restore 999 509 graph;
#X obj 766 860 s $frequency;
#X obj 680 665 t f f;
#N canvas 594 277 1580 782 #porta 0;
#X obj 627 561 inlet;
#X obj 627 711 outlet;
#X obj 627 675 line;
#X text 628 533 note;
#X obj 627 643 pack 0 0;
#X obj 827 442 inlet;
#X text 869 438 portamento speed (ms);
#X obj 673 608 expr if ($i1 == 1 \, $f2 \, 0);
#X obj 66 41 r $gl1;
#X obj 792 471 delay;
#X obj 792 439 bng 15 250 50 0 empty empty empty 17 7 0 10 -262144
-1 -1;
#X msg 792 505 0, f 2;
#X obj 52 110 &&;
#X obj 24 81 == 1;
#X msg 673 440 1;
#X obj 147 120 &&;
#X obj 161 39 r $gl2;
#X obj 118 85 == 2;
#X obj 231 126 &&;
#X obj 315 127 &&;
#X obj 401 132 &&;
#X obj 506 132 &&;
#X obj 202 91 == 3;
#X obj 245 45 r $gl3;
#X obj 286 92 == 4;
#X obj 329 46 r $gl4;
#X obj 372 97 == 5;
#X obj 415 51 r $gl5;
#X obj 477 97 == 6;
#X obj 520 51 r $gl6;
#X obj 592 136 &&;
#X obj 697 136 &&;
#X obj 606 55 r $gl7;
#X obj 563 101 == 7;
#X obj 668 101 == 8;
#X obj 711 55 r $gl8;
#X obj 804 134 &&;
#X obj 890 139 &&;
#X obj 995 139 &&;
#X obj 1079 143 &&;
#X obj 1186 143 &&;
#X obj 775 99 == 9;
#X obj 818 53 r $gl9;
#X obj 904 58 r $gl10;
#X obj 861 104 == 10;
#X obj 1009 58 r $gl11;
#X obj 966 104 == 11;
#X obj 1052 108 == 12;
#X obj 1096 62 r $gl12;
#X obj 1200 62 r $gl13;
#X obj 1157 108 == 13;
#X obj 1291 147 &&;
#X obj 1377 151 &&;
#X obj 1476 148 &&;
#X obj 1262 112 == 14;
#X obj 1348 116 == 15;
#X obj 1447 113 == 16;
#X obj 1305 66 r $gl14;
#X obj 1392 70 r $gl15;
#X obj 1496 70 r $gl16;
#X obj 777 12 + 1;
#X obj 777 -9 r $step;
#X obj 792 388 select 1;
#X obj 896 390 s $glideOn;
#X connect 0 0 4 0;
#X connect 2 0 1 0;
#X connect 4 0 2 0;
#X connect 5 0 9 1;
#X connect 5 0 7 1;
#X connect 7 0 4 1;
#X connect 8 0 12 1;
#X connect 9 0 11 0;
#X connect 9 0 7 0;
#X connect 10 0 9 0;
#X connect 11 0 7 0;
#X connect 12 0 62 0;
#X connect 13 0 12 0;
#X connect 14 0 7 0;
#X connect 15 0 62 0;
#X connect 16 0 15 1;
#X connect 17 0 15 0;
#X connect 18 0 62 0;
#X connect 19 0 62 0;
#X connect 20 0 62 0;
#X connect 21 0 62 0;
#X connect 22 0 18 0;
#X connect 23 0 18 1;
#X connect 24 0 19 0;
#X connect 25 0 19 1;
#X connect 26 0 20 0;
#X connect 27 0 20 1;
#X connect 28 0 21 0;
#X connect 29 0 21 1;
#X connect 30 0 62 0;
#X connect 31 0 62 0;
#X connect 32 0 30 1;
#X connect 33 0 30 0;
#X connect 34 0 31 0;
#X connect 35 0 31 1;
#X connect 36 0 62 0;
#X connect 37 0 62 0;
#X connect 38 0 62 0;
#X connect 39 0 62 0;
#X connect 40 0 62 0;
#X connect 41 0 36 0;
#X connect 42 0 36 1;
#X connect 43 0 37 1;
#X connect 44 0 37 0;
#X connect 45 0 38 1;
#X connect 46 0 38 0;
#X connect 47 0 39 0;
#X connect 48 0 39 1;
#X connect 49 0 40 1;
#X connect 50 0 40 0;
#X connect 51 0 62 0;
#X connect 52 0 62 0;
#X connect 53 0 62 0;
#X connect 54 0 51 0;
#X connect 55 0 52 0;
#X connect 56 0 53 0;
#X connect 57 0 51 1;
#X connect 58 0 52 1;
#X connect 59 0 53 1;
#X connect 60 0 13 0;
#X connect 60 0 17 0;
#X connect 60 0 22 0;
#X connect 60 0 24 0;
#X connect 60 0 26 0;
#X connect 60 0 28 0;
#X connect 60 0 33 0;
#X connect 60 0 34 0;
#X connect 60 0 41 0;
#X connect 60 0 44 0;
#X connect 60 0 46 0;
#X connect 60 0 47 0;
#X connect 60 0 50 0;
#X connect 60 0 54 0;
#X connect 60 0 55 0;
#X connect 60 0 56 0;
#X connect 61 0 60 0;
#X connect 62 0 10 0;
#X connect 62 0 14 0;
#X connect 62 0 7 0;
#X connect 62 0 63 0;
#X restore 828 751 pd #porta;
#X obj 890 723 r $glideTime;
#X obj 605 718 s $nextNote;
#X floatatom 532 678 5 0 0 0 - - -;
#X obj 656 271 select 1 2 3 4 5 6 7 8 9 10 11 12 13 14 15 16;
#X obj 656 243 + 1;
#X obj 660 216 r $step;
#X connect 0 0 57 0;
#X connect 1 0 58 0;
#X connect 2 0 59 0;
#X connect 3 0 60 0;
#X connect 4 0 61 0;
#X connect 5 0 62 0;
#X connect 6 0 63 0;
#X connect 7 0 64 0;
#X connect 8 0 69 0;
#X connect 9 0 71 0;
#X connect 10 0 73 0;
#X connect 11 0 75 0;
#X connect 12 0 76 0;
#X connect 13 0 80 0;
#X connect 14 0 82 0;
#X connect 15 0 57 1;
#X connect 16 0 31 0;
#X connect 17 0 65 0;
#X connect 18 0 32 0;
#X connect 19 0 43 0;
#X connect 20 0 42 0;
#X connect 21 0 33 0;
#X connect 22 0 34 0;
#X connect 23 0 35 0;
#X connect 24 0 36 0;
#X connect 25 0 37 0;
#X connect 26 0 38 0;
#X connect 27 0 39 0;
#X connect 28 0 74 0;
#X connect 29 0 40 0;
#X connect 30 0 41 0;
#X connect 31 0 0 1;
#X connect 32 0 2 1;
#X connect 33 0 3 1;
#X connect 34 0 4 1;
#X connect 35 0 5 1;
#X connect 36 0 6 1;
#X connect 37 0 7 1;
#X connect 38 0 8 1;
#X connect 39 0 9 1;
#X connect 40 0 11 1;
#X connect 41 0 12 1;
#X connect 42 0 13 1;
#X connect 43 0 14 1;
#X connect 44 0 45 0;
#X connect 45 0 46 0;
#X connect 46 0 89 0;
#X connect 47 0 91 0;
#X connect 48 0 93 0;
#X connect 49 0 48 0;
#X connect 50 0 58 1;
#X connect 51 0 59 1;
#X connect 52 0 60 1;
#X connect 53 0 61 1;
#X connect 54 0 62 1;
#X connect 55 0 63 1;
#X connect 56 0 64 1;
#X connect 57 0 66 0;
#X connect 58 0 66 0;
#X connect 59 0 66 0;
#X connect 60 0 66 0;
#X connect 61 0 66 0;
#X connect 62 0 66 0;
#X connect 63 0 66 0;
#X connect 64 0 66 0;
#X connect 65 0 1 1;
#X connect 66 0 92 0;
#X connect 67 0 49 0;
#X connect 67 0 95 0;
#X connect 67 0 96 0;
#X connect 68 0 67 1;
#X connect 69 0 66 0;
#X connect 70 0 69 1;
#X connect 71 0 66 0;
#X connect 72 0 71 1;
#X connect 73 0 66 0;
#X connect 74 0 10 1;
#X connect 75 0 66 0;
#X connect 76 0 66 0;
#X connect 77 0 73 1;
#X connect 78 0 75 1;
#X connect 79 0 76 1;
#X connect 80 0 66 0;
#X connect 81 0 80 1;
#X connect 82 0 66 0;
#X connect 83 0 82 1;
#X connect 84 0 86 0;
#X connect 85 0 84 1;
#X connect 86 0 66 0;
#X connect 87 0 85 0;
#X connect 88 0 86 1;
#X connect 89 0 48 1;
#X connect 92 0 67 0;
#X connect 92 1 68 0;
#X connect 93 0 47 0;
#X connect 94 0 93 1;
#X connect 97 0 0 0;
#X connect 97 1 1 0;
#X connect 97 2 2 0;
#X connect 97 3 3 0;
#X connect 97 4 4 0;
#X connect 97 5 5 0;
#X connect 97 6 6 0;
#X connect 97 7 7 0;
#X connect 97 8 8 0;
#X connect 97 9 9 0;
#X connect 97 10 10 0;
#X connect 97 11 11 0;
#X connect 97 12 12 0;
#X connect 97 13 13 0;
#X connect 97 14 14 0;
#X connect 97 15 84 0;
#X connect 98 0 97 0;
#X connect 99 0 98 0;
#X restore 850 54 pd #sequencer;
#X obj 1227 66 bng 15 250 50 0 empty empty empty 17 7 0 10 -262144
-1 -1;
#X obj 1230 153 s $manualTick;
#N canvas 2774 32 1051 579 #soundEngine 1;
#N canvas 855 247 450 300 #squareWave 0;
#X obj 154 161 phasor~;
#X obj 262 167 phasor~;
#X obj 268 135 + 0.5;
#X obj 214 211 -~;
#X obj 159 100 sig~ 120;
#X msg 257 102 0;
#X obj 215 238 outlet~;
#X floatatom 85 102 5 0 0 0 - - -;
#X obj 159 77 r $frequency;
#X obj 281 56 loadbang;
#X connect 0 0 3 0;
#X connect 1 0 3 1;
#X connect 2 0 1 1;
#X connect 3 0 6 0;
#X connect 4 0 0 0;
#X connect 4 0 1 0;
#X connect 5 0 0 1;
#X connect 5 0 2 0;
#X connect 8 0 4 0;
#X connect 8 0 7 0;
#X connect 9 0 5 0;
#X restore 425 70 pd #squareWave;
#N canvas 2106 765 1524 776 #envelope 0;
#X floatatom 639 495 5 0 0 0 - - -;
#X obj 639 467 line;
#X msg 638 437 0 300;
#X msg 637 409 set 0 \$1;
#X obj 642 386 r $decay;
#X obj 630 591 outlet;
#X obj 629 304 t b b b;
#X obj 30 147 &&;
#X obj 63 117 r $g1;
#X obj 30 117 == 1;
#X obj 628 261 select 1;
#X obj 107 151 &&;
#X obj 107 120 == 2;
#X obj 140 119 r $g2;
#X obj 184 148 &&;
#X obj 261 152 &&;
#X obj 185 118 == 3;
#X obj 217 118 r $g3;
#X obj 261 121 == 4;
#X obj 294 120 r $g4;
#X obj 331 149 &&;
#X obj 408 153 &&;
#X obj 485 150 &&;
#X obj 562 154 &&;
#X obj 331 118 == 5;
#X obj 364 119 r $g5;
#X obj 408 122 == 6;
#X obj 441 121 r $g6;
#X obj 486 120 == 7;
#X obj 518 120 r $g7;
#X obj 562 123 == 8;
#X obj 595 122 r $g8;
#X obj 634 150 &&;
#X obj 711 154 &&;
#X obj 784 151 &&;
#X obj 895 150 &&;
#X obj 972 150 &&;
#X obj 1054 148 &&;
#X obj 1132 146 &&;
#X obj 1210 147 &&;
#X obj 634 121 == 9;
#X obj 744 122 r $g10;
#X obj 667 120 r $g9;
#X obj 711 123 == 10;
#X obj 785 121 == 11;
#X obj 895 119 == 12;
#X obj 930 118 r $g12;
#X obj 972 119 == 13;
#X obj 1004 119 r $g13;
#X obj 1054 117 == 14;
#X obj 1087 116 r $g14;
#X obj 1133 116 == 15;
#X obj 1165 116 r $g15;
#X obj 1210 116 == 16;
#X obj 1243 115 r $g16;
#X obj 826 120 r $g11;
#N canvas 294 281 1549 958 #accent 0;
#X obj 670 694 line;
#X obj 42 159 &&;
#X obj 42 129 == 1;
#X obj 119 163 &&;
#X obj 119 132 == 2;
#X obj 196 160 &&;
#X obj 273 164 &&;
#X obj 197 130 == 3;
#X obj 273 133 == 4;
#X obj 343 161 &&;
#X obj 420 165 &&;
#X obj 497 162 &&;
#X obj 574 166 &&;
#X obj 343 130 == 5;
#X obj 420 134 == 6;
#X obj 498 132 == 7;
#X obj 574 135 == 8;
#X obj 646 162 &&;
#X obj 723 166 &&;
#X obj 796 163 &&;
#X obj 907 162 &&;
#X obj 984 162 &&;
#X obj 1066 160 &&;
#X obj 1144 158 &&;
#X obj 1222 159 &&;
#X obj 646 133 == 9;
#X obj 723 135 == 10;
#X obj 797 133 == 11;
#X obj 907 131 == 12;
#X obj 984 131 == 13;
#X obj 1066 129 == 14;
#X obj 1145 128 == 15;
#X obj 1222 128 == 16;
#X obj 445 547 ||;
#X obj 475 548 ||;
#X obj 504 547 ||;
#X obj 534 548 ||;
#X obj 561 547 ||;
#X obj 591 548 ||;
#X obj 620 547 ||;
#X obj 650 548 ||;
#X obj 681 548 ||;
#X obj 711 549 ||;
#X obj 740 548 ||;
#X obj 770 549 ||;
#X obj 797 548 ||;
#X obj 827 549 ||;
#X obj 856 548 ||;
#X obj 75 129 r $a1;
#X obj 152 131 r $a2;
#X obj 229 130 r $a3;
#X obj 376 131 r $a5;
#X obj 306 132 r a4;
#X obj 453 133 r $a6;
#X obj 530 132 r $a7;
#X obj 607 134 r $a8;
#X obj 679 132 r $a9;
#X obj 942 130 r $a12;
#X obj 840 132 r $a11;
#X obj 756 134 r $a10;
#X obj 1016 131 r $a13;
#X obj 1099 128 r $a14;
#X obj 1177 128 r $a15;
#X obj 1255 127 r $a16;
#X obj 670 722 outlet;
#X msg 670 664 1 15;
#X msg 687 642 set \$1 15;
#X obj 687 613 expr if ($f1 == 1 \, 1.5 \, 1);
#X obj 688 587 tgl 15 0 empty empty empty 17 7 0 10 -262144 -1 -1 0
1;
#X obj 602 55 + 1;
#X obj 603 12 r $step;
#X connect 0 0 64 0;
#X connect 1 0 33 0;
#X connect 2 0 1 0;
#X connect 3 0 33 1;
#X connect 4 0 3 0;
#X connect 5 0 34 0;
#X connect 6 0 35 1;
#X connect 7 0 5 0;
#X connect 8 0 6 0;
#X connect 9 0 36 1;
#X connect 10 0 37 1;
#X connect 11 0 38 1;
#X connect 12 0 39 1;
#X connect 13 0 9 0;
#X connect 14 0 10 0;
#X connect 15 0 11 0;
#X connect 16 0 12 0;
#X connect 17 0 40 1;
#X connect 18 0 41 1;
#X connect 19 0 42 1;
#X connect 20 0 43 1;
#X connect 21 0 44 1;
#X connect 22 0 45 1;
#X connect 23 0 46 1;
#X connect 24 0 47 1;
#X connect 25 0 17 0;
#X connect 26 0 18 0;
#X connect 27 0 19 0;
#X connect 28 0 20 0;
#X connect 29 0 21 0;
#X connect 30 0 22 0;
#X connect 31 0 23 0;
#X connect 32 0 24 0;
#X connect 33 0 34 1;
#X connect 34 0 35 0;
#X connect 35 0 36 0;
#X connect 36 0 37 0;
#X connect 37 0 38 0;
#X connect 38 0 39 0;
#X connect 39 0 40 0;
#X connect 40 0 41 0;
#X connect 41 0 42 0;
#X connect 42 0 43 0;
#X connect 43 0 44 0;
#X connect 44 0 45 0;
#X connect 45 0 46 0;
#X connect 46 0 47 0;
#X connect 47 0 68 0;
#X connect 48 0 1 1;
#X connect 49 0 3 1;
#X connect 50 0 5 1;
#X connect 51 0 9 1;
#X connect 52 0 6 1;
#X connect 53 0 10 1;
#X connect 54 0 11 1;
#X connect 55 0 12 1;
#X connect 56 0 17 1;
#X connect 57 0 20 1;
#X connect 58 0 19 1;
#X connect 59 0 18 1;
#X connect 60 0 21 1;
#X connect 61 0 22 1;
#X connect 62 0 23 1;
#X connect 63 0 24 1;
#X connect 65 0 0 0;
#X connect 66 0 65 0;
#X connect 67 0 66 0;
#X connect 68 0 67 0;
#X connect 69 0 2 0;
#X connect 69 0 4 0;
#X connect 69 0 7 0;
#X connect 69 0 8 0;
#X connect 69 0 13 0;
#X connect 69 0 14 0;
#X connect 69 0 15 0;
#X connect 69 0 16 0;
#X connect 69 0 25 0;
#X connect 69 0 26 0;
#X connect 69 0 27 0;
#X connect 69 0 28 0;
#X connect 69 0 29 0;
#X connect 69 0 30 0;
#X connect 69 0 31 0;
#X connect 69 0 32 0;
#X connect 69 0 65 0;
#X connect 70 0 69 0;
#X restore 667 520 pd #accent;
#X msg 729 437 set 1;
#X obj 637 547 *;
#X obj 614 59 + 1;
#X obj 643 19 r $step;
#X obj 683 495 outlet;
#X obj 543 510 > 0;
#X obj 543 539 s $envGate;
#X obj 690 570 s $envLvl;
#X connect 0 0 58 0;
#X connect 0 0 62 0;
#X connect 1 0 0 0;
#X connect 1 0 61 0;
#X connect 2 0 1 0;
#X connect 3 0 2 0;
#X connect 4 0 3 0;
#X connect 6 0 2 0;
#X connect 6 1 57 0;
#X connect 7 0 10 0;
#X connect 8 0 7 1;
#X connect 9 0 7 0;
#X connect 10 0 6 0;
#X connect 11 0 10 0;
#X connect 12 0 11 0;
#X connect 13 0 11 1;
#X connect 14 0 10 0;
#X connect 15 0 10 0;
#X connect 16 0 14 0;
#X connect 17 0 14 1;
#X connect 18 0 15 0;
#X connect 19 0 15 1;
#X connect 20 0 10 0;
#X connect 21 0 10 0;
#X connect 22 0 10 0;
#X connect 23 0 10 0;
#X connect 24 0 20 0;
#X connect 25 0 20 1;
#X connect 26 0 21 0;
#X connect 27 0 21 1;
#X connect 28 0 22 0;
#X connect 29 0 22 1;
#X connect 30 0 23 0;
#X connect 31 0 23 1;
#X connect 32 0 10 0;
#X connect 33 0 10 0;
#X connect 34 0 10 0;
#X connect 35 0 10 0;
#X connect 36 0 10 0;
#X connect 37 0 10 0;
#X connect 38 0 10 0;
#X connect 39 0 10 0;
#X connect 40 0 32 0;
#X connect 41 0 33 1;
#X connect 42 0 32 1;
#X connect 43 0 33 0;
#X connect 44 0 34 0;
#X connect 45 0 35 0;
#X connect 46 0 35 1;
#X connect 47 0 36 0;
#X connect 48 0 36 1;
#X connect 49 0 37 0;
#X connect 50 0 37 1;
#X connect 51 0 38 0;
#X connect 52 0 38 1;
#X connect 53 0 39 0;
#X connect 54 0 39 1;
#X connect 55 0 34 1;
#X connect 56 0 58 1;
#X connect 57 0 1 0;
#X connect 58 0 5 0;
#X connect 58 0 64 0;
#X connect 59 0 9 0;
#X connect 59 0 12 0;
#X connect 59 0 16 0;
#X connect 59 0 18 0;
#X connect 59 0 24 0;
#X connect 59 0 26 0;
#X connect 59 0 28 0;
#X connect 59 0 30 0;
#X connect 59 0 40 0;
#X connect 59 0 43 0;
#X connect 59 0 44 0;
#X connect 59 0 45 0;
#X connect 59 0 47 0;
#X connect 59 0 49 0;
#X connect 59 0 51 0;
#X connect 59 0 53 0;
#X connect 60 0 59 0;
#X connect 62 0 63 0;
#X restore 510 143 pd #envelope;
#X obj 502 168 *~;
#X obj 581 233 bob~ 120 1.2;
#X obj 616 160 pack 0 50;
#X obj 616 185 line~;
#X obj 684 187 line~;
#X obj 684 164 r $resonance;
#X obj 615 32 r $filterFreq;
#X obj 344 49 r $frequency;
#X obj 344 71 phasor~ 120, f 12;
#X obj 401 21 r $waveform;
#X obj 343 119 *~;
#X obj 358 91 == 0;
#X obj 442 96 == 1;
#X obj 426 118 *~;
#X floatatom 649 85 5 0 0 0 - - -;
#X obj 572 185 + 0.5;
#X obj 609 213 *~;
#X obj 550 323 dac~ 7;
#X obj 613 323 dac~ 8;
#X connect 0 0 15 0;
#X connect 1 0 2 1;
#X connect 1 1 17 0;
#X connect 2 0 3 0;
#X connect 3 0 19 0;
#X connect 3 0 20 0;
#X connect 4 0 5 0;
#X connect 5 0 18 0;
#X connect 6 0 3 2;
#X connect 7 0 6 0;
#X connect 8 0 16 0;
#X connect 8 0 4 0;
#X connect 9 0 10 0;
#X connect 10 0 12 0;
#X connect 11 0 13 0;
#X connect 11 0 14 0;
#X connect 12 0 2 0;
#X connect 13 0 12 1;
#X connect 14 0 15 1;
#X connect 15 0 2 0;
#X connect 17 0 18 1;
#X connect 18 0 3 1;
#X restore 853 100 pd #soundEngine;
#X obj 341 75 vsl 20 64 0 250 0 0 $glideTime empty Glide_Time -20 -9
0 12 -228856 -260097 -66577 3500 1;
#N canvas -11 -11 3840 2036 #hapticGlide 0;
#X restore 852 126 pd #hapticGlide;
#N canvas 586 0 2551 2024 #hapticGate 0;
#X obj 1349 792 + 1;
#X floatatom 1349 816 5 0 0 0 - - -;
#X obj 1268 863 == 1;
#X obj 1310 863 == 2;
#X obj 1351 863 == 3;
#X obj 1391 864 == 4;
#X obj 1434 864 == 5;
#X obj 1473 863 == 6;
#X obj 1243 913 &&;
#X obj 1292 914 &&;
#X obj 1333 912 &&;
#X obj 1373 919 &&;
#X obj 1416 916 &&;
#X obj 1455 915 &&;
#X obj 1243 945 tgl 15 0 empty empty empty 17 7 0 10 -262144 -1 -1
0 1;
#X obj 1292 943 tgl 15 0 empty empty empty 17 7 0 10 -262144 -1 -1
0 1;
#X obj 1333 941 tgl 15 0 empty empty empty 17 7 0 10 -262144 -1 -1
0 1;
#X obj 1373 949 tgl 15 0 empty empty empty 17 7 0 10 -262144 -1 -1
0 1;
#X obj 1416 946 tgl 15 0 empty empty empty 17 7 0 10 -262144 -1 -1
0 1;
#X obj 1455 946 tgl 15 0 empty empty empty 17 7 0 10 -262144 -1 -1
0 1;
#X obj 1240 985 *~;
#X obj 1290 984 *~;
#X obj 1346 985 *~;
#X obj 1391 984 *~;
#X obj 1439 982 *~;
#X obj 1492 981 *~;
#X obj 1140 965 osc~ 180;
#X obj 1239 1038 *~;
#X obj 1295 1037 *~;
#X obj 1345 1038 *~;
#X obj 1390 1037 *~;
#X obj 1438 1035 *~;
#X obj 1491 1034 *~;
#X obj 1152 1012 r $envLvl;
#X obj 1167 1168 dac~ 1;
#X obj 1271 1170 dac~ 2;
#X obj 1345 764 r $nextNote;
#X obj 1133 1080 == 1;
#X obj 1174 1077 == 0;
#X obj 1149 1132 *~;
#X obj 867 163 line;
#X msg 867 100 set \$1 \$2;
#X obj 863 67 pack f f;
#X floatatom 932 41 5 0 0 0 - - -;
#X obj 930 14 r $glideTime;
#X obj 842 13 r $nextNote;
#X floatatom 863 40 5 0 0 0 - - -;
#X msg 867 132 0 0;
#X obj 903 40 b;
#X floatatom 867 189 5 0 0 0 - - -;
#X obj 832 98 bng 20 250 50 0 empty empty empty 17 7 0 10 -262144 -1
-1;
#X obj 750 138 s $trigger;
#X obj 1052 129 hsl 256 40 0 5 0 0 empty empty empty -2 -8 0 10 -262144
-1 -1 0 1;
#X obj 748 230 expr 1 - $f1;
#X obj 789 296 &&;
#X obj 789 323 tgl 15 0 empty empty empty 17 7 0 10 -262144 -1 -1 0
1;
#X obj 742 354 spigot;
#X obj 749 432 clip -1 1;
#X obj 749 458 abs;
#X obj 777 268 < 1;
#X obj 768 401 *;
#X obj 796 355 b;
#X obj 815 268 > 0;
#X obj 752 553 * 1.5707;
#X obj 754 633 sin;
#X floatatom 754 657 5 0 0 0 - - -;
#X obj 1093 502 expr 2 - $f1;
#X obj 1094 548 * 1.5707;
#X obj 1094 572 sin;
#X obj 1093 523 clip 0 6;
#X obj 866 598 expr if( $f1 > 1 \, $f3 \, sin((1 - $f2) * 1.5707))
;
#X obj 1461 551 * 1.5707;
#X obj 1461 575 sin;
#X obj 1460 526 clip 0 6;
#X obj 1460 500 expr 3 - $f1;
#X obj 1222 600 expr if( $f1 > 2 \, $f3 \, sin((1 - $f2) * 1.5707))
;
#X obj 1222 625 clip 0 1;
#X obj 1761 553 * 1.5707;
#X obj 1761 577 sin;
#X obj 1544 629 clip 0 1;
#X obj 1544 602 expr if( $f1 > 3 \, $f3 \, sin((1 - $f2) * 1.5707))
;
#X obj 1759 508 expr 4 - $f1;
#X obj 2072 560 * 1.5707;
#X obj 2072 584 sin;
#X obj 1852 632 clip 0 1;
#X floatatom 1852 676 5 0 0 0 - - -;
#X obj 2071 511 expr 5 - $f1;
#X obj 1853 607 expr if( $f1 > 4 \, $f3 \, sin((1 - $f2) * 1.5707))
;
#X obj 2436 562 * 1.5707;
#X obj 2436 586 sin;
#X obj 2221 632 clip 0 1;
#X floatatom 2221 680 5 0 0 0 - - -;
#X obj 2222 607 expr if( $f1 > 5 \, $f3 \, sin((1 - $f2) * 1.5707))
;
#X obj 2436 513 expr 6 - $f1;
#X obj 1761 529 clip 0 2;
#X obj 2072 535 clip 0 2;
#X obj 2436 537 clip 0 2;
#X obj 2222 578 spigot;
#X obj 2255 554 < 2;
#X obj 1853 579 spigot;
#X obj 1889 558 < 2;
#X obj 1545 574 spigot;
#X obj 1581 545 < 2;
#X floatatom 1544 671 5 0 0 0 - - -;
#X floatatom 1222 668 5 0 0 0 - - -;
#X obj 866 620 clip 0 1;
#X floatatom 866 664 5 0 0 0 - - -;
#X obj 1222 647 expr if($f1 < 0.2 \, 0 \, $f1);
#X obj 866 643 expr if($f1 < 0.2 \, 0 \, $f1);
#X obj 1544 650 expr if($f1 < 0.2 \, 0 \, $f1);
#X obj 1852 654 expr if($f1 < 0.2 \, 0 \, $f1);
#X obj 2221 656 expr if($f1 < 0.2 \, 0 \, $f1);
#X obj 717 44 r $glideOn;
#X obj 969 150 bng 15 250 50 0 empty empty empty 17 7 0 10 -262144
-1 -1;
#X obj 1178 1131 *~;
#X obj 1206 1102 *~;
#X obj 1126 867 r $envGate;
#X obj 1257 1089 == 1;
#X obj 1298 1086 == 0;
#X obj 1273 1141 *~;
#X obj 1302 1140 *~;
#X obj 1290 1119 *~;
#X obj 1348 1093 == 1;
#X obj 1389 1090 == 0;
#X obj 1364 1145 *~;
#X obj 1393 1144 *~;
#X obj 1381 1123 *~;
#X obj 1362 1174 dac~ 3;
#X obj 1426 1097 == 1;
#X obj 1467 1094 == 0;
#X obj 1442 1149 *~;
#X obj 1471 1148 *~;
#X obj 1459 1127 *~;
#X obj 1440 1178 dac~ 4;
#X obj 1500 1095 == 1;
#X obj 1541 1092 == 0;
#X obj 1516 1147 *~;
#X obj 1545 1146 *~;
#X obj 1533 1125 *~;
#X obj 1514 1176 dac~ 5;
#X obj 1575 1095 == 1;
#X obj 1616 1092 == 0;
#X obj 1591 1147 *~;
#X obj 1620 1146 *~;
#X obj 1608 1125 *~;
#X obj 1589 1176 dac~ 6;
#X connect 0 0 1 0;
#X connect 1 0 2 0;
#X connect 1 0 3 0;
#X connect 1 0 4 0;
#X connect 1 0 5 0;
#X connect 1 0 6 0;
#X connect 1 0 7 0;
#X connect 2 0 8 1;
#X connect 3 0 9 1;
#X connect 4 0 10 1;
#X connect 5 0 11 1;
#X connect 6 0 12 1;
#X connect 7 0 13 1;
#X connect 8 0 14 0;
#X connect 9 0 15 0;
#X connect 10 0 16 0;
#X connect 11 0 17 0;
#X connect 12 0 18 0;
#X connect 13 0 19 0;
#X connect 14 0 20 1;
#X connect 14 0 37 0;
#X connect 14 0 38 0;
#X connect 15 0 21 1;
#X connect 15 0 117 0;
#X connect 15 0 118 0;
#X connect 16 0 22 1;
#X connect 16 0 122 0;
#X connect 16 0 123 0;
#X connect 17 0 23 1;
#X connect 17 0 128 0;
#X connect 17 0 129 0;
#X connect 18 0 24 1;
#X connect 18 0 134 0;
#X connect 18 0 135 0;
#X connect 19 0 25 1;
#X connect 19 0 140 0;
#X connect 19 0 141 0;
#X connect 20 0 27 0;
#X connect 21 0 28 0;
#X connect 22 0 29 0;
#X connect 23 0 30 0;
#X connect 24 0 31 0;
#X connect 25 0 32 0;
#X connect 26 0 20 0;
#X connect 26 0 21 0;
#X connect 26 0 22 0;
#X connect 26 0 23 0;
#X connect 26 0 24 0;
#X connect 26 0 25 0;
#X connect 27 0 39 1;
#X connect 27 0 115 0;
#X connect 28 0 121 0;
#X connect 28 0 119 0;
#X connect 29 0 126 0;
#X connect 29 0 124 0;
#X connect 30 0 132 0;
#X connect 30 0 130 0;
#X connect 31 0 136 0;
#X connect 31 0 138 0;
#X connect 32 0 144 0;
#X connect 32 0 142 0;
#X connect 33 0 27 1;
#X connect 33 0 28 1;
#X connect 33 0 29 1;
#X connect 33 0 30 1;
#X connect 33 0 31 1;
#X connect 33 0 32 1;
#X connect 36 0 0 0;
#X connect 37 0 39 0;
#X connect 38 0 114 1;
#X connect 39 0 34 0;
#X connect 40 0 49 0;
#X connect 41 0 47 0;
#X connect 42 0 41 0;
#X connect 43 0 42 1;
#X connect 43 0 48 0;
#X connect 44 0 43 0;
#X connect 45 0 46 0;
#X connect 46 0 42 0;
#X connect 47 0 40 0;
#X connect 47 0 113 0;
#X connect 48 0 42 0;
#X connect 49 0 53 0;
#X connect 49 0 66 0;
#X connect 49 0 70 0;
#X connect 49 0 74 0;
#X connect 49 0 75 0;
#X connect 49 0 81 0;
#X connect 49 0 86 0;
#X connect 49 0 97 0;
#X connect 49 0 99 0;
#X connect 49 0 101 0;
#X connect 49 0 93 0;
#X connect 50 0 51 0;
#X connect 50 0 47 0;
#X connect 52 0 49 0;
#X connect 53 0 59 0;
#X connect 53 0 62 0;
#X connect 53 0 56 0;
#X connect 54 0 55 0;
#X connect 55 0 56 1;
#X connect 55 0 61 0;
#X connect 55 0 60 1;
#X connect 56 0 60 0;
#X connect 57 0 58 0;
#X connect 58 0 70 1;
#X connect 58 0 63 0;
#X connect 59 0 54 0;
#X connect 60 0 57 0;
#X connect 61 0 60 0;
#X connect 62 0 54 1;
#X connect 63 0 64 0;
#X connect 64 0 65 0;
#X connect 65 0 115 1;
#X connect 66 0 75 1;
#X connect 66 0 69 0;
#X connect 67 0 68 0;
#X connect 68 0 70 2;
#X connect 69 0 67 0;
#X connect 70 0 105 0;
#X connect 71 0 72 0;
#X connect 72 0 75 2;
#X connect 73 0 71 0;
#X connect 74 0 80 1;
#X connect 74 0 73 0;
#X connect 75 0 76 0;
#X connect 76 0 107 0;
#X connect 77 0 78 0;
#X connect 78 0 80 2;
#X connect 79 0 109 0;
#X connect 80 0 79 0;
#X connect 81 0 87 1;
#X connect 81 0 94 0;
#X connect 82 0 83 0;
#X connect 83 0 87 2;
#X connect 84 0 110 0;
#X connect 85 0 138 1;
#X connect 86 0 92 1;
#X connect 86 0 95 0;
#X connect 87 0 84 0;
#X connect 88 0 89 0;
#X connect 89 0 92 2;
#X connect 90 0 111 0;
#X connect 91 0 144 1;
#X connect 92 0 90 0;
#X connect 93 0 96 0;
#X connect 94 0 77 0;
#X connect 94 0 102 0;
#X connect 95 0 82 0;
#X connect 95 0 100 0;
#X connect 96 0 88 0;
#X connect 96 0 98 0;
#X connect 97 0 92 0;
#X connect 98 0 97 1;
#X connect 99 0 87 0;
#X connect 100 0 99 1;
#X connect 101 0 80 0;
#X connect 102 0 101 1;
#X connect 103 0 132 1;
#X connect 104 0 126 1;
#X connect 105 0 108 0;
#X connect 106 0 121 1;
#X connect 107 0 104 0;
#X connect 108 0 106 0;
#X connect 109 0 103 0;
#X connect 110 0 85 0;
#X connect 111 0 91 0;
#X connect 112 0 50 0;
#X connect 114 0 34 0;
#X connect 115 0 114 0;
#X connect 116 0 8 0;
#X connect 116 0 9 0;
#X connect 116 0 10 0;
#X connect 116 0 11 0;
#X connect 116 0 12 0;
#X connect 116 0 13 0;
#X connect 117 0 119 1;
#X connect 118 0 120 1;
#X connect 119 0 35 0;
#X connect 120 0 35 0;
#X connect 121 0 120 0;
#X connect 122 0 124 1;
#X connect 123 0 125 1;
#X connect 124 0 127 0;
#X connect 125 0 127 0;
#X connect 126 0 125 0;
#X connect 128 0 130 1;
#X connect 129 0 131 1;
#X connect 130 0 133 0;
#X connect 131 0 133 0;
#X connect 132 0 131 0;
#X connect 134 0 136 1;
#X connect 135 0 137 1;
#X connect 136 0 139 0;
#X connect 137 0 139 0;
#X connect 138 0 137 0;
#X connect 140 0 142 1;
#X connect 141 0 143 1;
#X connect 142 0 145 0;
#X connect 143 0 145 0;
#X connect 144 0 143 0;
#X restore 850 152 pd #hapticGate;
#X connect 82 0 83 0;
#X connect 83 0 84 0;
#X connect 86 0 87 0;
