#N canvas 232 237 2120 828 10;
#X obj 360 166 line;
#X msg 360 103 set \$1 \$2;
#X obj 356 70 pack f f;
#X floatatom 425 44 5 0 0 0 - - -;
#X obj 423 17 r $glideTime;
#X obj 335 16 r $nextNote;
#X floatatom 356 43 5 0 0 0 - - -;
#X msg 360 135 1 858;
#X obj 396 43 b;
#X floatatom 360 192 5 0 0 0 - - -;
#X obj 642 105 s $nextNote;
#X obj 325 101 bng 20 250 50 0 empty empty empty 17 7 0 10 -262144
-1 -1;
#X obj 243 141 s $trigger;
#X obj 476 141 bng 15 250 50 0 empty empty empty 17 7 0 10 -262144
-1 -1;
#X obj 545 132 hsl 256 40 0 5 0 0 empty empty empty -2 -8 0 10 -262144
-1 -1 25500 1;
#X msg 589 54 0;
#X msg 626 53 1;
#X msg 665 53 2;
#X msg 698 54 3;
#X msg 733 54 4;
#X msg 769 55 5;
#X obj 241 233 expr 1 - $f1;
#X obj 282 299 &&;
#X obj 282 326 tgl 15 0 empty empty empty 17 7 0 10 -262144 -1 -1 1
1;
#X obj 235 357 spigot;
#X obj 242 435 clip -1 1;
#X obj 242 461 abs;
#X obj 270 271 < 1;
#X obj 261 404 *;
#X obj 289 358 b;
#X obj 308 271 > 0;
#X obj 245 556 * 1.5707;
#X obj 247 636 sin;
#X floatatom 247 660 5 0 0 0 - - -;
#X obj 586 505 expr 2 - $f1;
#X obj 587 551 * 1.5707;
#X obj 587 575 sin;
#X obj 586 526 clip 0 6;
#X obj 359 601 expr if( $f1 > 1 \, $f3 \, sin((1 - $f2) * 1.5707))
;
#X obj 954 554 * 1.5707;
#X obj 954 578 sin;
#X obj 953 529 clip 0 6;
#X obj 953 503 expr 3 - $f1;
#X obj 715 603 expr if( $f1 > 2 \, $f3 \, sin((1 - $f2) * 1.5707))
;
#X obj 715 628 clip 0 1;
#X obj 1254 556 * 1.5707;
#X obj 1254 580 sin;
#X obj 1037 632 clip 0 1;
#X obj 1037 605 expr if( $f1 > 3 \, $f3 \, sin((1 - $f2) * 1.5707))
;
#X obj 1252 511 expr 4 - $f1;
#X obj 1565 563 * 1.5707;
#X obj 1565 587 sin;
#X obj 1345 635 clip 0 1;
#X floatatom 1345 679 5 0 0 0 - - -;
#X obj 1564 514 expr 5 - $f1;
#X obj 1346 610 expr if( $f1 > 4 \, $f3 \, sin((1 - $f2) * 1.5707))
;
#X obj 1929 565 * 1.5707;
#X obj 1929 589 sin;
#X obj 1714 635 clip 0 1;
#X floatatom 1714 683 5 0 0 0 - - -;
#X obj 1715 610 expr if( $f1 > 5 \, $f3 \, sin((1 - $f2) * 1.5707))
;
#X obj 1929 516 expr 6 - $f1;
#X obj 1254 532 clip 0 2;
#X obj 1565 538 clip 0 2;
#X obj 1929 540 clip 0 2;
#X obj 1715 581 spigot;
#X obj 1748 557 < 2;
#X obj 1346 582 spigot;
#X obj 1382 561 < 2;
#X obj 1038 577 spigot;
#X obj 1074 548 < 2;
#X floatatom 1037 674 5 0 0 0 - - -;
#X floatatom 715 671 5 0 0 0 - - -;
#X obj 359 623 clip 0 1;
#X floatatom 359 667 5 0 0 0 - - -;
#X obj 715 650 expr if($f1 < 0.2 \, 0 \, $f1);
#X obj 359 646 expr if($f1 < 0.2 \, 0 \, $f1);
#X obj 1037 653 expr if($f1 < 0.2 \, 0 \, $f1);
#X obj 1345 657 expr if($f1 < 0.2 \, 0 \, $f1);
#X obj 1714 659 expr if($f1 < 0.2 \, 0 \, $f1);
#X connect 0 0 9 0;
#X connect 1 0 7 0;
#X connect 2 0 1 0;
#X connect 3 0 2 1;
#X connect 3 0 8 0;
#X connect 4 0 3 0;
#X connect 5 0 6 0;
#X connect 6 0 2 0;
#X connect 7 0 0 0;
#X connect 8 0 2 0;
#X connect 9 0 21 0;
#X connect 9 0 34 0;
#X connect 9 0 38 0;
#X connect 9 0 42 0;
#X connect 9 0 43 0;
#X connect 9 0 49 0;
#X connect 9 0 54 0;
#X connect 9 0 65 0;
#X connect 9 0 67 0;
#X connect 9 0 69 0;
#X connect 9 0 61 0;
#X connect 11 0 7 0;
#X connect 11 0 12 0;
#X connect 13 0 9 0;
#X connect 14 0 9 0;
#X connect 15 0 10 0;
#X connect 16 0 10 0;
#X connect 17 0 10 0;
#X connect 18 0 10 0;
#X connect 19 0 10 0;
#X connect 20 0 10 0;
#X connect 21 0 27 0;
#X connect 21 0 30 0;
#X connect 21 0 24 0;
#X connect 22 0 23 0;
#X connect 23 0 24 1;
#X connect 23 0 29 0;
#X connect 23 0 28 1;
#X connect 24 0 28 0;
#X connect 25 0 26 0;
#X connect 26 0 38 1;
#X connect 26 0 31 0;
#X connect 27 0 22 0;
#X connect 28 0 25 0;
#X connect 29 0 28 0;
#X connect 30 0 22 1;
#X connect 31 0 32 0;
#X connect 32 0 33 0;
#X connect 34 0 43 1;
#X connect 34 0 37 0;
#X connect 35 0 36 0;
#X connect 36 0 38 2;
#X connect 37 0 35 0;
#X connect 38 0 73 0;
#X connect 39 0 40 0;
#X connect 40 0 43 2;
#X connect 41 0 39 0;
#X connect 42 0 48 1;
#X connect 42 0 41 0;
#X connect 43 0 44 0;
#X connect 44 0 75 0;
#X connect 45 0 46 0;
#X connect 46 0 48 2;
#X connect 47 0 77 0;
#X connect 48 0 47 0;
#X connect 49 0 55 1;
#X connect 49 0 62 0;
#X connect 50 0 51 0;
#X connect 51 0 55 2;
#X connect 52 0 78 0;
#X connect 54 0 60 1;
#X connect 54 0 63 0;
#X connect 55 0 52 0;
#X connect 56 0 57 0;
#X connect 57 0 60 2;
#X connect 58 0 79 0;
#X connect 60 0 58 0;
#X connect 61 0 64 0;
#X connect 62 0 45 0;
#X connect 62 0 70 0;
#X connect 63 0 50 0;
#X connect 63 0 68 0;
#X connect 64 0 56 0;
#X connect 64 0 66 0;
#X connect 65 0 60 0;
#X connect 66 0 65 1;
#X connect 67 0 55 0;
#X connect 68 0 67 1;
#X connect 69 0 48 0;
#X connect 70 0 69 1;
#X connect 73 0 76 0;
#X connect 75 0 72 0;
#X connect 76 0 74 0;
#X connect 77 0 71 0;
#X connect 78 0 53 0;
#X connect 79 0 59 0;
