#N canvas 34 55 829 567 10;
#X obj 240 459 hradio 30 1 0 16 $step $tick empty 0 -6 0 10 -228856
-262130 -1 13;
#N canvas 1795 483 450 300 #BPM 0;
#X obj 95 187 f;
#X obj 128 186 + 1;
#X obj 95 154 metro;
#X obj 95 133 tgl 15 1 empty $playStop empty 0 -6 0 10 -262144 -1 -1
1 1;
#X obj 95 218 mod 16;
#X obj 122 108 r $tempo;
#X obj 202 73 loadbang;
#X msg 202 98 120;
#X obj 95 240 s $tick;
#X obj 37 154 select 0;
#X msg 66 186 0;
#X obj 246 149 bng 15 250 50 0 empty empty empty 17 7 0 10 -262144
-1 -1;
#X obj 282 117 r $manualTick;
#X obj 122 133 expr 15000 / $f1;
#X connect 0 0 1 0;
#X connect 0 0 4 0;
#X connect 1 0 0 1;
#X connect 2 0 0 0;
#X connect 3 0 2 0;
#X connect 3 0 9 0;
#X connect 4 0 8 0;
#X connect 5 0 13 0;
#X connect 6 0 7 0;
#X connect 7 0 13 0;
#X connect 9 0 10 0;
#X connect 10 0 0 0;
#X connect 11 0 0 0;
#X connect 12 0 11 0;
#X connect 13 0 2 1;
#X restore 853 77 pd #BPM;
#X obj 196 459 tgl 30 0 $playStop empty Play/Stop -15 40 0 12 -261234
-1 -99865 1 1;
#X obj 134 91 vradio 20 1 0 2 $waveform empty Saw/Square -20 -8 0 12
-228856 -260097 -99865 1;
#X obj 240 422 tgl 30 0 $gl1 empty empty 17 7 0 10 -228856 -260097
-1 0 1;
#X obj 270 422 tgl 30 0 $gl2 empty empty 17 7 0 10 -228856 -260097
-1 0 1;
#X obj 300 422 tgl 30 0 $gl3 empty empty 17 7 0 10 -228856 -260097
-1 0 1;
#X obj 330 422 tgl 30 0 $gl4 empty empty 17 7 0 10 -228856 -260097
-1 0 1;
#X obj 360 422 tgl 30 0 $gl5 empty empty 17 7 0 10 -228856 -260097
-1 0 1;
#X obj 390 422 tgl 30 0 $gl6 empty empty 17 7 0 10 -228856 -260097
-1 0 1;
#X obj 420 422 tgl 30 0 $gl7 empty empty 17 7 0 10 -228856 -260097
-1 0 1;
#X obj 450 422 tgl 30 0 $gl8 empty empty 17 7 0 10 -228856 -260097
-1 0 1;
#X obj 480 422 tgl 30 0 $gl9 empty empty 17 7 0 10 -228856 -260097
-1 0 1;
#X obj 510 422 tgl 30 0 $gl10 empty empty 17 7 0 10 -228856 -260097
-1 0 1;
#X obj 540 422 tgl 30 0 $gl11 empty empty 17 7 0 10 -228856 -260097
-1 0 1;
#X obj 570 422 tgl 30 0 $gl12 empty empty 17 7 0 10 -228856 -260097
-1 0 1;
#X obj 600 422 tgl 30 0 $gl13 empty empty 17 7 0 10 -228856 -260097
-1 0 1;
#X obj 630 422 tgl 30 0 $gl14 empty empty 17 7 0 10 -228856 -260097
-1 0 1;
#X obj 660 422 tgl 30 0 $gl15 empty empty 17 7 0 10 -228856 -260097
-1 0 1;
#X obj 690 422 tgl 30 0 $gl16 empty empty 17 7 0 10 -228856 -260097
-1 0 1;
#X obj 195 313 cnv 15 525 30 empty empty C 0 15 0 30 -233017 -66577
0;
#X obj 195 282 cnv 15 525 30 empty empty E♭ 0 15 0 30 -162280 -66577
0;
#X obj 195 251 cnv 15 525 30 empty empty F 0 15 0 30 -233017 -66577
0;
#X obj 195 220 cnv 15 525 30 empty empty G 0 15 0 30 -228856 -66577
0;
#X obj 195 189 cnv 15 525 30 empty empty B♭ 0 15 0 30 -162280 -66577
0;
#X obj 195 158 cnv 15 525 30 empty empty C 0 15 0 30 -228856 -66577
0;
#X obj 240 160 vsl 30 180 1 6.99 0 1 $s1 empty empty 0 -8 0 10 -262130
-99865 -1 9800 0;
#X obj 270 160 vsl 30 180 1 6.99 0 1 $s2 empty empty 0 -8 0 10 -262130
-99865 -1 0 0;
#X obj 300 160 vsl 30 180 1 6.99 0 1 $s3 empty empty 0 -8 0 10 -262130
-99865 -1 0 0;
#X obj 330 160 vsl 30 180 1 6.99 0 1 $s4 empty empty 0 -8 0 10 -262130
-99865 -1 0 0;
#X obj 360 160 vsl 30 180 1 6.99 0 1 $s5 empty empty 0 -8 0 10 -262130
-99865 -1 0 0;
#X obj 390 160 vsl 30 180 1 6.99 0 1 $s6 empty empty 0 -8 0 10 -262130
-99865 -1 0 0;
#X obj 420 160 vsl 30 180 1 6.99 0 1 $s7 empty empty 0 -8 0 10 -262130
-99865 -1 0 0;
#X obj 450 160 vsl 30 180 1 6.99 0 1 $s8 empty empty 0 -8 0 10 -262130
-99865 -1 8000 0;
#X obj 480 160 vsl 30 180 1 6.99 0 1 $s9 empty empty 0 -8 0 10 -262130
-99865 -1 0 0;
#X obj 510 160 vsl 30 180 1 6.99 0 1 $s10 empty empty 0 -8 0 10 -262130
-99865 -1 2000 0;
#X obj 540 160 vsl 30 180 1 6.99 0 1 $s11 empty empty 0 -8 0 10 -262130
-99865 -1 0 0;
#X obj 570 160 vsl 30 180 1 6.99 0 1 $s12 empty empty 0 -8 0 10 -262130
-99865 -1 0 0;
#X obj 600 160 vsl 30 180 1 6.99 0 1 $s13 empty empty 0 -8 0 10 -262130
-99865 -1 0 0;
#X obj 630 160 vsl 30 180 1 6.99 0 1 $s14 empty empty 0 -8 0 10 -262130
-99865 -1 0 0;
#X obj 660 160 vsl 30 180 1 6.99 0 1 $s15 empty empty 0 -8 0 10 -262130
-99865 -1 0 0;
#X obj 690 160 vsl 30 180 1 6.99 0 1 $s16 empty empty 0 -8 0 10 -262130
-99865 -1 0 0;
#X obj 196 422 cnv 15 35 30 empty empty Glide 0 15 0 12 -233017 -66577
0;
#X obj 126 203 vradio 30 1 0 3 $octave empty Octave -5 -8 0 12 -228856
-260097 -99865 2;
#X obj 240 386 tgl 30 0 $a1 empty empty 17 7 0 10 -228856 -260097 -1
0 1;
#X obj 270 386 tgl 30 0 $a2 empty empty 17 7 0 10 -228856 -260097 -1
0 1;
#X obj 300 386 tgl 30 0 $a3 empty empty 17 7 0 10 -228856 -260097 -1
0 1;
#X obj 330 386 tgl 30 0 $a4 empty empty 17 7 0 10 -228856 -260097 -1
0 1;
#X obj 360 386 tgl 30 0 $a5 empty empty 17 7 0 10 -228856 -260097 -1
0 1;
#X obj 390 386 tgl 30 0 $a6 empty empty 17 7 0 10 -228856 -260097 -1
0 1;
#X obj 420 386 tgl 30 0 $a7 empty empty 17 7 0 10 -228856 -260097 -1
0 1;
#X obj 450 386 tgl 30 0 $a8 empty empty 17 7 0 10 -228856 -260097 -1
0 1;
#X obj 480 386 tgl 30 0 $a9 empty empty 17 7 0 10 -228856 -260097 -1
0 1;
#X obj 510 386 tgl 30 0 $a10 empty empty 17 7 0 10 -228856 -260097
-1 0 1;
#X obj 540 386 tgl 30 0 $a11 empty empty 17 7 0 10 -228856 -260097
-1 0 1;
#X obj 570 386 tgl 30 0 $a12 empty empty 17 7 0 10 -228856 -260097
-1 0 1;
#X obj 600 386 tgl 30 0 $a13 empty empty 17 7 0 10 -228856 -260097
-1 0 1;
#X obj 630 386 tgl 30 0 $a14 empty empty 17 7 0 10 -228856 -260097
-1 0 1;
#X obj 660 386 tgl 30 0 $a15 empty empty 17 7 0 10 -228856 -260097
-1 0 1;
#X obj 690 386 tgl 30 0 $a16 empty empty 17 7 0 10 -228856 -260097
-1 0 1;
#X obj 196 386 cnv 15 42 30 empty empty Accent 0 15 0 12 -233017 -66577
0;
#X obj 240 350 tgl 30 0 $g1 empty empty 17 7 0 10 -228856 -260097 -1
0 1;
#X obj 270 350 tgl 30 0 $g2 empty empty 17 7 0 10 -228856 -260097 -1
0 1;
#X obj 300 350 tgl 30 0 $g3 empty empty 17 7 0 10 -228856 -260097 -1
0 1;
#X obj 330 350 tgl 30 0 $g4 empty empty 17 7 0 10 -228856 -260097 -1
1 1;
#X obj 360 350 tgl 30 0 $g5 empty empty 17 7 0 10 -228856 -260097 -1
0 1;
#X obj 390 350 tgl 30 0 $g6 empty empty 17 7 0 10 -228856 -260097 -1
0 1;
#X obj 420 350 tgl 30 0 $g7 empty empty 17 7 0 10 -228856 -260097 -1
0 1;
#X obj 450 350 tgl 30 0 $g8 empty empty 17 7 0 10 -228856 -260097 -1
1 1;
#X obj 480 350 tgl 30 0 $g9 empty empty 17 7 0 10 -228856 -260097 -1
0 1;
#X obj 510 350 tgl 30 0 $g10 empty empty 17 7 0 10 -228856 -260097
-1 1 1;
#X obj 540 350 tgl 30 0 $g11 empty empty 17 7 0 10 -228856 -260097
-1 0 1;
#X obj 570 350 tgl 30 0 $g12 empty empty 17 7 0 10 -228856 -260097
-1 0 1;
#X obj 600 350 tgl 30 0 $g13 empty empty 17 7 0 10 -228856 -260097
-1 0 1;
#X obj 630 350 tgl 30 0 $g14 empty empty 17 7 0 10 -228856 -260097
-1 1 1;
#X obj 660 350 tgl 30 0 $g15 empty empty 17 7 0 10 -228856 -260097
-1 1 1;
#X obj 690 350 tgl 30 0 $g16 empty empty 17 7 0 10 -228856 -260097
-1 0 1;
#X obj 196 350 cnv 15 30 30 empty empty Gate 0 15 0 12 -233017 -66577
0;
#X text 1190 204 a\$1 = accent 1 g\$1 = gate 1 gl\$1 = glide 1;
#X obj 455 76 vsl 20 64 0 1 0 0 $accVolume empty Accent_Volume -30
-9 0 12 -228856 -260097 -66577 0 1;
#X obj 245 76 vsl 20 64 1 1000 0 0 $decay empty Decay -6 -9 0 12 -228856
-260097 -66577 2300 1;
#X obj 596 76 vsl 20 64 20 4000 0 0 $filterFreq empty Filter_Frequency
-40 -9 0 12 -228856 -260097 -66577 2300 1;
#X obj 697 76 vsl 20 64 0 5 0 0 $resonance empty Filter_Q -15 -9 0
12 -228856 -260097 -66577 3300 1;
#X obj 341 75 vsl 20 64 0 1 0 0 $glideTime empty Glide_Time -20 -9
0 12 -228856 -260097 -66577 0 1;
#X obj 73 64 vsl 20 64 60 180 0 0 $tempo empty Tempo -6 -9 0 12 -228856
-260097 -66577 4300 1;
#X obj 73 139 i;
#X floatatom 73 163 5 0 0 0 - - -;
#N canvas 893 355 1672 930 #sequencer 1;
#X obj 583 278 r $step;
#X obj 583 301 select 0 1 2 3 4 5 6 7 8 9 10 11 12 13 14 15;
#X obj 127 376 f;
#X obj 194 376 f;
#X obj 258 376 f;
#X obj 330 379 f;
#X obj 398 381 f;
#X obj 464 381 f;
#X obj 529 380 f;
#X obj 595 380 f;
#X obj 660 381 f;
#X obj 723 383 f;
#X obj 795 384 f;
#X obj 859 385 f;
#X obj 925 385 f;
#X obj 999 386 f;
#X obj 1070 385 f;
#X obj 152 376 r $g1;
#X obj 126 330 r $s1;
#X obj 195 333 r $s2;
#X obj 259 332 r $s3;
#X obj 1070 344 r $s15;
#X obj 998 341 r $s14;
#X obj 329 337 r $s4;
#X obj 397 336 r $s5;
#X obj 464 339 r $s6;
#X obj 528 339 r $s7;
#X obj 594 338 r $s8;
#X obj 658 341 r $s9;
#X obj 722 342 r $s10;
#X obj 790 341 r $s11;
#X obj 857 343 r $s12;
#X obj 924 342 r $s13;
#X obj 126 352 i;
#X obj 259 353 i;
#X obj 329 358 i;
#X obj 397 357 i;
#X obj 464 360 i;
#X obj 528 360 i;
#X obj 594 359 i;
#X obj 658 362 i;
#X obj 722 363 i;
#X obj 857 364 i;
#X obj 924 363 i;
#X obj 998 362 i;
#X obj 1070 365 i;
#X obj 801 639 r $octave;
#X obj 801 664 + 1;
#X obj 801 691 * 12;
#X obj 786 799 mtof;
#X obj 786 742 +;
#X obj 685 716 tabread notesTable;
#X floatatom 786 770 5 0 0 0 - - -;
#X obj 219 376 r $g2;
#X obj 287 376 r $g3;
#X obj 358 381 r $g4;
#X obj 427 382 r $g5;
#X obj 490 381 r $g6;
#X obj 554 380 r $g7;
#X obj 621 380 r $g8;
#X obj 137 398 *;
#X obj 204 398 *;
#X obj 272 398 *;
#X obj 343 403 *;
#X obj 412 404 *;
#X obj 475 403 *;
#X obj 539 402 *;
#X obj 606 402 *;
#X obj 195 354 i;
#X obj 680 642 - 1;
#X obj 685 692 spigot;
#X obj 718 665 >= 0;
#X obj 670 404 *;
#X obj 685 382 r $g9;
#X obj 735 406 *;
#X obj 750 384 r $g10;
#X obj 807 407 *;
#X obj 790 362 i;
#X obj 869 407 *;
#X obj 937 407 *;
#X obj 822 385 r $g11;
#X obj 884 385 r $g12;
#X obj 952 385 r $g13;
#X obj 1011 407 *;
#X obj 1026 385 r $g14;
#X obj 1081 407 *;
#X obj 1096 385 r $g15;
#X obj 1145 386 f;
#X obj 1145 366 i;
#X obj 1156 408 *;
#X obj 1146 344 r $s16;
#X obj 1171 386 r $g16;
#X obj 801 716 + 12;
#N canvas 0 50 450 250 (subpatch) 0;
#X array notesTable 6 float 3;
#A 0 0 3 5 7 10 12;
#X coords 0 12 6 0 200 140 1 0 0;
#X restore 999 509 graph;
#X floatatom 259 620 5 0 0 0 - - -;
#X floatatom 688 774 5 0 0 0 - - -;
#X obj 785 824 s $frequency;
#X floatatom 847 793 5 0 0 0 - - -;
#X obj 596 698 t f f;
#X connect 0 0 1 0;
#X connect 1 0 2 0;
#X connect 1 1 3 0;
#X connect 1 2 4 0;
#X connect 1 3 5 0;
#X connect 1 4 6 0;
#X connect 1 5 7 0;
#X connect 1 6 8 0;
#X connect 1 7 9 0;
#X connect 1 8 10 0;
#X connect 1 9 11 0;
#X connect 1 10 12 0;
#X connect 1 11 13 0;
#X connect 1 12 14 0;
#X connect 1 13 15 0;
#X connect 1 14 16 0;
#X connect 1 16 87 0;
#X connect 2 0 60 0;
#X connect 3 0 61 0;
#X connect 4 0 62 0;
#X connect 5 0 63 0;
#X connect 6 0 64 0;
#X connect 7 0 65 0;
#X connect 8 0 66 0;
#X connect 9 0 67 0;
#X connect 10 0 72 0;
#X connect 11 0 74 0;
#X connect 12 0 76 0;
#X connect 13 0 78 0;
#X connect 14 0 79 0;
#X connect 15 0 83 0;
#X connect 16 0 85 0;
#X connect 17 0 60 1;
#X connect 18 0 33 0;
#X connect 19 0 68 0;
#X connect 20 0 34 0;
#X connect 21 0 45 0;
#X connect 22 0 44 0;
#X connect 23 0 35 0;
#X connect 24 0 36 0;
#X connect 25 0 37 0;
#X connect 26 0 38 0;
#X connect 27 0 39 0;
#X connect 28 0 40 0;
#X connect 29 0 41 0;
#X connect 30 0 77 0;
#X connect 31 0 42 0;
#X connect 32 0 43 0;
#X connect 33 0 2 1;
#X connect 34 0 4 1;
#X connect 35 0 5 1;
#X connect 36 0 6 1;
#X connect 37 0 7 1;
#X connect 38 0 8 1;
#X connect 39 0 9 1;
#X connect 40 0 10 1;
#X connect 41 0 11 1;
#X connect 42 0 13 1;
#X connect 43 0 14 1;
#X connect 44 0 15 1;
#X connect 45 0 16 1;
#X connect 46 0 47 0;
#X connect 47 0 48 0;
#X connect 48 0 92 0;
#X connect 49 0 96 0;
#X connect 49 0 97 0;
#X connect 50 0 52 0;
#X connect 51 0 50 0;
#X connect 51 0 95 0;
#X connect 52 0 49 0;
#X connect 53 0 61 1;
#X connect 54 0 62 1;
#X connect 55 0 63 1;
#X connect 56 0 64 1;
#X connect 57 0 65 1;
#X connect 58 0 66 1;
#X connect 59 0 67 1;
#X connect 60 0 69 0;
#X connect 61 0 69 0;
#X connect 62 0 69 0;
#X connect 63 0 69 0;
#X connect 63 0 94 0;
#X connect 64 0 69 0;
#X connect 65 0 69 0;
#X connect 66 0 69 0;
#X connect 67 0 69 0;
#X connect 68 0 3 1;
#X connect 69 0 98 0;
#X connect 70 0 51 0;
#X connect 71 0 70 1;
#X connect 72 0 69 0;
#X connect 73 0 72 1;
#X connect 74 0 69 0;
#X connect 75 0 74 1;
#X connect 76 0 69 0;
#X connect 77 0 12 1;
#X connect 78 0 69 0;
#X connect 79 0 69 0;
#X connect 80 0 76 1;
#X connect 81 0 78 1;
#X connect 82 0 79 1;
#X connect 83 0 69 0;
#X connect 84 0 83 1;
#X connect 85 0 69 0;
#X connect 86 0 85 1;
#X connect 87 0 89 0;
#X connect 88 0 87 1;
#X connect 89 0 69 0;
#X connect 90 0 88 0;
#X connect 91 0 89 1;
#X connect 92 0 50 1;
#X connect 98 0 70 0;
#X connect 98 1 71 0;
#X restore 850 54 pd #sequencer;
#X obj 1227 66 bng 15 250 50 0 empty empty empty 17 7 0 10 -262144
-1 -1;
#X obj 1230 153 s $manualTick;
#N canvas 1266 558 1051 616 #soundEngine 0;
#N canvas 855 247 450 300 #squareWave 0;
#X obj 154 161 phasor~;
#X obj 262 167 phasor~;
#X obj 268 135 + 0.5;
#X obj 214 211 -~;
#X obj 159 100 sig~ 120;
#X msg 257 102 0;
#X obj 215 238 outlet~;
#X floatatom 85 102 5 0 0 0 - - -;
#X obj 159 77 r $frequency;
#X obj 281 56 loadbang;
#X connect 0 0 3 0;
#X connect 1 0 3 1;
#X connect 2 0 1 1;
#X connect 3 0 6 0;
#X connect 4 0 0 0;
#X connect 4 0 1 0;
#X connect 5 0 0 1;
#X connect 5 0 2 0;
#X connect 8 0 4 0;
#X connect 8 0 7 0;
#X connect 9 0 5 0;
#X restore 425 70 pd #squareWave;
#N canvas 1024 579 1524 758 #envelope 0;
#X floatatom 650 522 5 0 0 0 - - -;
#X obj 650 494 line;
#X msg 643 333 set 1;
#X msg 638 437 0 365.714;
#X msg 637 409 set 0 \$1;
#X obj 642 386 r $decay;
#X obj 650 545 outlet;
#X obj 923 404 tgl 15 0 empty empty empty 17 7 0 10 -262144 -1 -1 0
1;
#X obj 899 451 spigot;
#X msg 896 421 0, f 7;
#X obj 923 372 == 1;
#X obj 629 304 t b b b;
#X obj 30 147 &&;
#X obj 63 117 r $g1;
#X obj 30 117 == 1;
#X obj 628 261 select 1;
#X obj 107 151 &&;
#X obj 107 120 == 2;
#X obj 614 59 r $step;
#X obj 140 119 r $g2;
#X obj 184 148 &&;
#X obj 261 152 &&;
#X obj 185 118 == 3;
#X obj 217 118 r $g3;
#X obj 261 121 == 4;
#X obj 294 120 r $g4;
#X obj 331 149 &&;
#X obj 408 153 &&;
#X obj 485 150 &&;
#X obj 562 154 &&;
#X obj 331 118 == 5;
#X obj 364 119 r $g5;
#X obj 408 122 == 6;
#X obj 441 121 r $g6;
#X obj 486 120 == 7;
#X obj 518 120 r $g7;
#X obj 562 123 == 8;
#X obj 595 122 r $g8;
#X obj 634 150 &&;
#X obj 711 154 &&;
#X obj 784 151 &&;
#X obj 895 150 &&;
#X obj 972 150 &&;
#X obj 1054 148 &&;
#X obj 1132 146 &&;
#X obj 1210 147 &&;
#X obj 634 121 == 9;
#X obj 744 122 r $g10;
#X obj 667 120 r $g9;
#X obj 711 123 == 10;
#X obj 785 121 == 11;
#X obj 895 119 == 12;
#X obj 930 118 r $g12;
#X obj 972 119 == 13;
#X obj 1004 119 r $g13;
#X obj 1054 117 == 14;
#X obj 1087 116 r $g14;
#X obj 1133 116 == 15;
#X obj 1165 116 r $g15;
#X obj 1210 116 == 16;
#X obj 1243 115 r $g16;
#X obj 826 120 r $g11;
#X text 924 346 here comes glide;
#X connect 0 0 6 0;
#X connect 1 0 0 0;
#X connect 2 0 1 0;
#X connect 3 0 1 0;
#X connect 4 0 3 0;
#X connect 5 0 4 0;
#X connect 7 0 8 1;
#X connect 8 0 1 0;
#X connect 9 0 8 0;
#X connect 10 0 7 0;
#X connect 11 0 3 0;
#X connect 11 1 2 0;
#X connect 11 2 9 0;
#X connect 12 0 15 0;
#X connect 13 0 12 1;
#X connect 14 0 12 0;
#X connect 15 0 11 0;
#X connect 16 0 15 0;
#X connect 17 0 16 0;
#X connect 18 0 14 0;
#X connect 18 0 17 0;
#X connect 18 0 22 0;
#X connect 18 0 24 0;
#X connect 18 0 30 0;
#X connect 18 0 32 0;
#X connect 18 0 34 0;
#X connect 18 0 36 0;
#X connect 18 0 46 0;
#X connect 18 0 49 0;
#X connect 18 0 50 0;
#X connect 18 0 51 0;
#X connect 18 0 53 0;
#X connect 18 0 55 0;
#X connect 18 0 57 0;
#X connect 18 0 59 0;
#X connect 19 0 16 1;
#X connect 20 0 15 0;
#X connect 21 0 15 0;
#X connect 22 0 20 0;
#X connect 23 0 20 1;
#X connect 24 0 21 0;
#X connect 25 0 21 1;
#X connect 26 0 15 0;
#X connect 27 0 15 0;
#X connect 28 0 15 0;
#X connect 29 0 15 0;
#X connect 30 0 26 0;
#X connect 31 0 26 1;
#X connect 32 0 27 0;
#X connect 33 0 27 1;
#X connect 34 0 28 0;
#X connect 35 0 28 1;
#X connect 36 0 29 0;
#X connect 37 0 29 1;
#X connect 38 0 15 0;
#X connect 39 0 15 0;
#X connect 40 0 15 0;
#X connect 41 0 15 0;
#X connect 42 0 15 0;
#X connect 43 0 15 0;
#X connect 44 0 15 0;
#X connect 45 0 15 0;
#X connect 46 0 38 0;
#X connect 47 0 39 1;
#X connect 48 0 38 1;
#X connect 49 0 39 0;
#X connect 50 0 40 0;
#X connect 51 0 41 0;
#X connect 52 0 41 1;
#X connect 53 0 42 0;
#X connect 54 0 42 1;
#X connect 55 0 43 0;
#X connect 56 0 43 1;
#X connect 57 0 44 0;
#X connect 58 0 44 1;
#X connect 59 0 45 0;
#X connect 60 0 45 1;
#X connect 61 0 40 1;
#X restore 510 143 pd #envelope;
#X obj 542 234 dac~ 1;
#X obj 602 233 dac~ 2;
#X obj 502 168 *~;
#X obj 566 194 bob~ 120 1.2;
#X obj 601 121 pack 0 50;
#X obj 601 146 line~;
#X obj 669 148 line~;
#X obj 669 125 r $resonance;
#X obj 601 98 r $filterFreq;
#X obj 344 49 r $frequency;
#X obj 344 71 phasor~ 120, f 12;
#X obj 401 21 r $waveform;
#X obj 343 119 *~;
#X obj 358 91 == 0;
#X obj 442 96 == 1;
#X obj 426 118 *~;
#X connect 0 0 17 0;
#X connect 1 0 4 1;
#X connect 4 0 5 0;
#X connect 5 0 2 0;
#X connect 5 0 3 0;
#X connect 6 0 7 0;
#X connect 7 0 5 1;
#X connect 8 0 5 2;
#X connect 9 0 8 0;
#X connect 10 0 6 0;
#X connect 11 0 12 0;
#X connect 12 0 14 0;
#X connect 13 0 15 0;
#X connect 13 0 16 0;
#X connect 14 0 4 0;
#X connect 15 0 14 1;
#X connect 16 0 17 1;
#X connect 17 0 4 0;
#X restore 853 100 pd #soundEngine;
#X connect 84 0 85 0;
#X connect 85 0 86 0;
#X connect 88 0 89 0;
