#N canvas -18 325 2183 620 12;
#X floatatom 195 91 5 0 0 0 - - -;
#X obj 195 114 % 6;
#X obj 195 135 abs;
#X obj 196 157 + 1;
#X floatatom 196 181 5 0 0 0 - - -;
#X obj 115 228 == 1;
#X obj 195 20 tgl 15 0 empty empty empty 17 7 0 10 -262144 -1 -1 0
1;
#X obj 195 68 i;
#X obj 232 68 + 1;
#X obj 157 228 == 2;
#X obj 198 228 == 3;
#X obj 238 229 == 4;
#X obj 281 229 == 5;
#X obj 320 228 == 6;
#X obj 90 278 &&;
#X obj 142 280 &&;
#X obj 193 281 &&;
#X obj 242 280 &&;
#X obj 293 281 &&;
#X obj 344 280 &&;
#X obj 195 44 metro 500;
#X obj 90 256 r $env;
#X obj 142 257 r $env;
#X obj 193 257 r $env;
#X obj 243 257 r $env;
#X obj 293 256 r $env;
#X obj 344 256 r $env;
#X obj 90 310 tgl 15 0 empty empty empty 17 7 0 10 -262144 -1 -1 0
1;
#X obj 142 309 tgl 15 0 empty empty empty 17 7 0 10 -262144 -1 -1 0
1;
#X obj 193 310 tgl 15 0 empty empty empty 17 7 0 10 -262144 -1 -1 0
1;
#X obj 242 310 tgl 15 0 empty empty empty 17 7 0 10 -262144 -1 -1 0
1;
#X obj 293 311 tgl 15 0 empty empty empty 17 7 0 10 -262144 -1 -1 0
1;
#X obj 344 311 tgl 15 0 empty empty empty 17 7 0 10 -262144 -1 -1 0
1;
#X obj 1188 238 line;
#X msg 1188 175 set \$1 \$2;
#X obj 1184 142 pack f f;
#X floatatom 1253 116 5 0 0 0 - - -;
#X obj 1251 89 r $glideTime;
#X obj 1163 88 r $nextNote;
#X floatatom 1184 115 5 0 0 0 - - -;
#X msg 1188 207 6 1508;
#X obj 1224 115 b;
#X floatatom 1188 264 5 0 0 0 - - -;
#N canvas 0 50 884 489 #envelope 0;
#X floatatom 54 172 5 0 0 0 - - -;
#X floatatom 62 40 5 0 0 0 - - -;
#X obj 41 40 bng 15 250 50 0 empty empty empty 17 7 0 10 -262144 -1
-1;
#X obj 54 144 line;
#X msg 93 105 set 1;
#X obj 94 82 delay;
#X msg 19 106 0 267;
#X msg 18 83 set 0 \$1;
#X obj 125 60 + 1;
#X obj 62 10 r $decay;
#X obj 54 207 > 0;
#X obj 54 237 s $env;
#X obj 17 10 inlet;
#X connect 0 0 10 0;
#X connect 1 0 7 0;
#X connect 1 0 8 0;
#X connect 2 0 6 0;
#X connect 2 0 5 0;
#X connect 3 0 0 0;
#X connect 4 0 3 0;
#X connect 5 0 4 0;
#X connect 6 0 3 0;
#X connect 7 0 6 0;
#X connect 8 0 5 1;
#X connect 9 0 1 0;
#X connect 10 0 11 0;
#X connect 12 0 2 0;
#X restore 277 66 pd #envelope;
#X msg 924 73 1;
#X msg 961 72 2;
#X msg 997 72 3;
#X msg 1032 73 4;
#X msg 1067 73 5;
#X msg 1103 74 6;
#X obj 977 124 s $nextNote;
#X obj 1153 173 bng 20 250 50 0 empty empty empty 17 7 0 10 -262144
-1 -1;
#X floatatom 898 393 5 0 0 0 - - -;
#X obj 898 333 expr 2 - $f1;
#X obj 996 332 expr 3 - $f1;
#X obj 1089 330 expr 4 - $f1;
#X obj 1187 329 expr 5 - $f1;
#X obj 1278 328 expr 6 - $f1;
#X obj 1372 327 expr 7 - $f1;
#X obj 898 363 clip 0 1;
#X floatatom 996 390 5 0 0 0 - - -;
#X obj 996 363 clip 0 1;
#X floatatom 1089 387 5 0 0 0 - - -;
#X obj 1089 361 clip 0 1;
#X floatatom 1187 385 5 0 0 0 - - -;
#X obj 1187 358 clip 0 1;
#X floatatom 1278 387 5 0 0 0 - - -;
#X obj 1278 358 clip 0 1;
#X floatatom 1372 385 5 0 0 0 - - -;
#X obj 1372 357 clip 0 1;
#X obj 1071 213 s $trigger;
#X connect 0 0 1 0;
#X connect 1 0 2 0;
#X connect 2 0 3 0;
#X connect 3 0 4 0;
#X connect 4 0 5 0;
#X connect 4 0 9 0;
#X connect 4 0 10 0;
#X connect 4 0 11 0;
#X connect 4 0 12 0;
#X connect 4 0 13 0;
#X connect 5 0 14 1;
#X connect 6 0 20 0;
#X connect 7 0 8 0;
#X connect 7 0 0 0;
#X connect 8 0 7 1;
#X connect 9 0 15 1;
#X connect 10 0 16 1;
#X connect 11 0 17 1;
#X connect 12 0 18 1;
#X connect 13 0 19 1;
#X connect 14 0 27 0;
#X connect 15 0 28 0;
#X connect 16 0 29 0;
#X connect 17 0 30 0;
#X connect 18 0 31 0;
#X connect 19 0 32 0;
#X connect 20 0 7 0;
#X connect 20 0 43 0;
#X connect 21 0 14 0;
#X connect 22 0 15 0;
#X connect 23 0 16 0;
#X connect 24 0 17 0;
#X connect 25 0 18 0;
#X connect 26 0 19 0;
#X connect 33 0 42 0;
#X connect 34 0 40 0;
#X connect 35 0 34 0;
#X connect 36 0 35 1;
#X connect 36 0 41 0;
#X connect 37 0 36 0;
#X connect 38 0 39 0;
#X connect 39 0 35 0;
#X connect 40 0 33 0;
#X connect 41 0 35 0;
#X connect 42 0 53 0;
#X connect 42 0 55 0;
#X connect 42 0 56 0;
#X connect 42 0 57 0;
#X connect 42 0 58 0;
#X connect 42 0 54 0;
#X connect 44 0 50 0;
#X connect 45 0 50 0;
#X connect 46 0 50 0;
#X connect 47 0 50 0;
#X connect 48 0 50 0;
#X connect 49 0 50 0;
#X connect 51 0 40 0;
#X connect 51 0 70 0;
#X connect 53 0 59 0;
#X connect 54 0 61 0;
#X connect 55 0 63 0;
#X connect 56 0 65 0;
#X connect 57 0 67 0;
#X connect 58 0 69 0;
#X connect 59 0 52 0;
#X connect 61 0 60 0;
#X connect 63 0 62 0;
#X connect 65 0 64 0;
#X connect 67 0 66 0;
#X connect 69 0 68 0;
